# xmcd
#
# Track frame offsets:
#	150
#	9630
#	27294
#	35122
#	48678
#	67677
#	79796
#	93516
#	106317
#	117207
#	135772
#	152521
#	168741
#	181368
#	188965
#	202608
#	223287
#	233933
#
# Disc length: 3309 seconds
#
# Revision: 1
# Processed by: cddbd v1.4PL0 Copyright (c) Steve Scherf et al.
# Submitted via: audiograbber 1.80.04
#
DISCID=ef0ceb12
DTITLE=Elvis Presley - I Was Born About Ten Thousand Years Ago
DYEAR=1900
DGENRE=Rock
TTITLE0=Snowbird
TTITLE1=Tomorrow Never Comes
TTITLE2=Little Cabin On The Hill
TTITLE3=Whole Lot Of Shakin' Goin' On
TTITLE4=Funny How Time Slips Away
TTITLE5=I Really Don't Want To Know
TTITLE6=There Goes My Everything
TTITLE7=It's Your Baby, You Rock It
TTITLE8=The Fool
TTITLE9=Faded Love
TTITLE10=I Washed My Hands In Muddy Water
TTITLE11=Make The World Go Away
TTITLE12=It Ain't No Big Thing (But It's Growing)
TTITLE13=A Hundred Years From Now
TTITLE14=If I Were You
TTITLE15=Got My Mojo Working/Keep Your Hands Off Of It
TTITLE16=Where Did They Go Lord
TTITLE17=I Was Born About Ten Thousand Years Ago
EXTD=
EXTT0=
EXTT1=
EXTT2=
EXTT3=
EXTT4=
EXTT5=
EXTT6=
EXTT7=
EXTT8=
EXTT9=
EXTT10=
EXTT11=
EXTT12=
EXTT13=
EXTT14=
EXTT15=
EXTT16=
EXTT17=
PLAYORDER=
